<?xml version="1.0" encoding="iso-8859-1"?>
<!-- Uploaded to: SVG Repo, www.svgrepo.com, Generator: SVG Repo Mixer Tools -->
<svg version="1.1" id="Layer_1" xmlns="http://www.w3.org/2000/svg" xmlns:xlink="http://www.w3.org/1999/xlink" 
	 viewBox="0 0 512 512" xml:space="preserve">
<path style="fill:#CCCCCC;" d="M462.136,433.096H49.864L256,76.872L462.136,433.096z M77.624,417.096H434.4L256,108.8
	L77.624,417.096z"/>
<rect x="214.456" y="39.888" style="fill:#FFFFFF;" width="83.096" height="83.104"/>
<path style="fill:#E21B1B;" d="M289.552,47.888v67.096h-67.104V47.888H289.552 M305.544,31.888h-99.096v99.096h99.104
	L305.544,31.888L305.544,31.888z"/>
<rect x="420.904" y="389.016" style="fill:#FFFFFF;" width="83.096" height="83.096"/>
<path style="fill:#E21B1B;" d="M496,397.016v67.096h-67.096v-67.096H496 M512,381.016h-99.096v99.096H512V381.016z"/>
<rect x="8" y="389.016" style="fill:#FFFFFF;" width="83.096" height="83.096"/>
<path style="fill:#E21B1B;" d="M83.096,397.016v67.096H16v-67.096H83.096 M99.096,381.016H0v99.096h99.096V381.016z"/>
</svg>