<?xml version="1.0" encoding="iso-8859-1"?>
<!-- Uploaded to: SVG Repo, www.svgrepo.com, Generator: SVG Repo Mixer Tools -->
<svg version="1.1" id="Layer_1" xmlns="http://www.w3.org/2000/svg" xmlns:xlink="http://www.w3.org/1999/xlink" 
	 viewBox="0 0 512 512" xml:space="preserve">
<g>
	<path style="fill:#999999;" d="M396.304,256H65.216v-50.464c0,0,62.4,3.672,125.6-64.224L396.304,256z"/>
	<path style="fill:#999999;" d="M396.304,256H65.216v50.464c0,0,62.4-3.672,125.6,64.224L396.304,256z"/>
</g>
<polygon style="fill:#E21B1B;" points="0,335.48 0,176.52 65.216,182.816 65.216,329.184 "/>
<g>
	<ellipse style="fill:#FFFFFF;" cx="177.68" cy="256" rx="21.4" ry="21.6"/>
	<polygon style="fill:#FFFFFF;" points="375.808,279.232 267.208,279.232 248.152,260 158.576,260 158.576,252 251.48,252 
		270.536,271.232 375.808,271.232 	"/>
</g>
<g>
	<rect x="479.368" y="24.624" style="fill:#999999;" width="16" height="478.392"/>
	<circle style="fill:#999999;" cx="487.368" cy="24.632" r="24.632"/>
	<circle style="fill:#999999;" cx="487.368" cy="487.368" r="24.632"/>
</g>
<path style="fill:#222020;" d="M305.24,446.128v-16c96.168,0.648,174.664-76.784,175.312-172.952S403.768,82.512,307.6,81.864
	c-0.784-0.008-1.576-0.008-2.36,0v-16c105.008-0.68,190.688,83.888,191.368,188.896S412.72,445.448,307.712,446.128
	C306.888,446.136,306.064,446.136,305.24,446.128z"/>
<g>
	<rect x="463.376" y="239.824" style="fill:#E21B1B;" width="48" height="48"/>
	<rect x="281.2" y="414.136" style="fill:#E21B1B;" width="48" height="48"/>
	<rect x="281.28" y="49.872" style="fill:#E21B1B;" width="48" height="48"/>
</g>
</svg>