<?xml version="1.0" encoding="iso-8859-1"?>
<!-- Uploaded to: SVG Repo, www.svgrepo.com, Generator: SVG Repo Mixer Tools -->
<svg fill="#000000" height="800px" width="800px" version="1.1" id="Capa_1" xmlns="http://www.w3.org/2000/svg" xmlns:xlink="http://www.w3.org/1999/xlink" 
	 viewBox="0 0 490.1 490.1" xml:space="preserve">
<g>
	<path d="M334.7,0H20.9C9.4,0,0,9.4,0,20.9v336.7c0,11.5,9.4,20.9,20.9,20.9h20.9c-0.7,4.8-1.1,9.6-1.1,14.6c0,53.2,43.8,97,98,97
		s98-43.8,98-97c0-5-0.4-9.8-1.1-14.6h18.9c-0.7,4.8-1.1,9.6-1.1,14.6c0,53.2,43.8,97,98,97s98-43.8,98-97c0-5-0.4-9.8-1.1-14.6
		h20.9c11.5,0,20.9-9.4,20.9-20.9V167.9C490,75.1,420.1,0,334.7,0z M449.3,167.9H339.9V40.8C401,43.8,449.3,99.9,449.3,167.9z
		 M298.2,167.9H191.8V40.7h106.3v127.2H298.2z M150.1,40.7v127.2H40.7V40.7H150.1z M195,392c0,31.3-25,56.3-56.3,56.3
		s-56.3-25-56.3-56.3s25-56.3,56.3-56.3C169.9,335.7,196,361.8,195,392z M351.3,448.3c-31.3,0-56.3-25-56.3-56.3s25-56.3,56.3-56.3
		s56.3,26.1,56.3,56.3C407.6,423.3,382.6,448.3,351.3,448.3z M431,336.7c-17.8-24.5-46.8-40.7-79.7-40.7s-61.9,16.1-79.7,40.7h-53.3
		c-17.8-24.5-46.8-40.7-79.7-40.7s-61.9,16.1-79.7,40.7H40.7V209.6h408.7v127.2H431V336.7z"/>
</g>
</svg>