<?xml version="1.0" encoding="iso-8859-1"?>
<!-- Uploaded to: SVG Repo, www.svgrepo.com, Generator: SVG Repo Mixer Tools -->
<svg fill="#000000" height="800px" width="800px" version="1.1" id="Layer_1" xmlns="http://www.w3.org/2000/svg" xmlns:xlink="http://www.w3.org/1999/xlink" 
	 viewBox="0 0 512 512" xml:space="preserve">
<g>
	<g>
		<path d="M503.847,108.705h-60.875c-4.504,0-8.153,3.65-8.153,8.153c0,4.503,3.649,8.153,8.153,8.153h52.722v261.979H129.359
			V125.011h278.828c4.504,0,8.153-3.65,8.153-8.153c0-4.503-3.649-8.153-8.153-8.153H121.206c-4.504,0-8.153,3.65-8.153,8.153
			v278.285c0,4.503,3.649,8.153,8.153,8.153h382.641c4.504,0,8.153-3.65,8.153-8.153V116.858
			C512,112.355,508.351,108.705,503.847,108.705z"/>
	</g>
</g>
<g>
	<g>
		<path d="M477.758,134.794H147.295c-4.504,0-8.153,3.65-8.153,8.153v226.106c0,4.503,3.649,8.153,8.153,8.153h330.463
			c4.504,0,8.153-3.65,8.153-8.153V142.947C485.911,138.444,482.262,134.794,477.758,134.794z M469.605,360.9H155.448V151.1h314.157
			V360.9z"/>
	</g>
</g>
<g>
	<g>
		<path d="M234.259,178.276h-43.482c-4.504,0-8.153,3.65-8.153,8.153s3.649,8.153,8.153,8.153h43.482
			c4.504,0,8.153-3.65,8.153-8.153S238.763,178.276,234.259,178.276z"/>
	</g>
</g>
<g>
	<g>
		<path d="M329.919,230.454H216.866c-4.504,0-8.153,3.65-8.153,8.153s3.649,8.153,8.153,8.153h113.053
			c4.504,0,8.153-3.65,8.153-8.153S334.423,230.454,329.919,230.454z"/>
	</g>
</g>
<g>
	<g>
		<path d="M329.919,265.24H216.866c-4.504,0-8.153,3.65-8.153,8.153c0,4.503,3.649,8.153,8.153,8.153h113.053
			c4.504,0,8.153-3.65,8.153-8.153C338.072,268.89,334.423,265.24,329.919,265.24z"/>
	</g>
</g>
<g>
	<g>
		<path d="M295.134,300.025h-78.268c-4.504,0-8.153,3.65-8.153,8.153s3.649,8.153,8.153,8.153h78.268
			c4.504,0,8.153-3.65,8.153-8.153S299.637,300.025,295.134,300.025z"/>
	</g>
</g>
<g>
	<g>
		<path d="M451.669,229.367c4.504,0,8.153-3.65,8.153-8.153c0-4.503-3.649-8.153-8.153-8.153h-0.544v-9.783h0.544
			c4.504,0,8.153-3.65,8.153-8.153c0-4.503-3.649-8.153-8.153-8.153h-0.544v-9.24c0-4.503-3.649-8.153-8.153-8.153h-0.544v-0.544
			c0-4.503-3.649-8.153-8.153-8.153c-4.504,0-8.153,3.65-8.153,8.153v0.544h-9.783v-0.544c0-4.503-3.649-8.153-8.153-8.153
			c-4.504,0-8.153,3.65-8.153,8.153v0.544h-9.783v-0.544c0-4.503-3.649-8.153-8.153-8.153c-4.504,0-8.153,3.65-8.153,8.153v0.544
			h-0.544c-4.504,0-8.153,3.65-8.153,8.153v9.24h-0.544c-4.504,0-8.153,3.65-8.153,8.153c0,4.503,3.649,8.153,8.153,8.153h0.544
			v9.783h-0.544c-4.504,0-8.153,3.65-8.153,8.153c0,4.503,3.649,8.153,8.153,8.153h0.544v9.783h-0.544
			c-4.504,0-8.153,3.65-8.153,8.153c0,4.503,3.649,8.153,8.153,8.153h0.544V256c0,4.503,3.649,8.153,8.153,8.153h0.544v0.544
			c0,4.503,3.649,8.153,8.153,8.153c4.504,0,8.153-3.65,8.153-8.153v-0.544h9.783v0.544c0,4.503,3.649,8.153,8.153,8.153
			c4.504,0,8.153-3.65,8.153-8.153v-0.544h9.783v0.544c0,4.503,3.649,8.153,8.153,8.153c4.504,0,8.153-3.65,8.153-8.153v-0.544
			h0.544c4.504,0,8.153-3.65,8.153-8.153v-0.544h0.544c4.504,0,8.153-3.65,8.153-8.153c0-4.503-3.649-8.153-8.153-8.153h-0.544
			v-9.783H451.669z M434.82,247.847h-53.265v-61.962h53.265V247.847z"/>
	</g>
</g>
<g>
	<g>
		<path d="M416.883,195.669H399.49c-4.504,0-8.153,3.65-8.153,8.153s3.649,8.153,8.153,8.153h17.393c4.504,0,8.153-3.65,8.153-8.153
			S421.387,195.669,416.883,195.669z"/>
	</g>
</g>
<g>
	<g>
		<path d="M416.883,221.758H399.49c-4.504,0-8.153,3.65-8.153,8.153s3.649,8.153,8.153,8.153h17.393c4.504,0,8.153-3.65,8.153-8.153
			S421.387,221.758,416.883,221.758z"/>
	</g>
</g>
<g>
	<g>
		<path d="M95.117,143.49H8.153c-4.504,0-8.153,3.65-8.153,8.153s3.649,8.153,8.153,8.153h86.964c4.504,0,8.153-3.65,8.153-8.153
			S99.62,143.49,95.117,143.49z"/>
	</g>
</g>
<g>
	<g>
		<path d="M95.117,213.062H25.546c-4.504,0-8.153,3.65-8.153,8.153c0,4.503,3.649,8.153,8.153,8.153h69.571
			c4.504,0,8.153-3.65,8.153-8.153C103.27,216.712,99.62,213.062,95.117,213.062z"/>
	</g>
</g>
<g>
	<g>
		<path d="M95.117,282.633H34.242c-4.504,0-8.153,3.65-8.153,8.153s3.649,8.153,8.153,8.153h60.875c4.504,0,8.153-3.65,8.153-8.153
			S99.62,282.633,95.117,282.633z"/>
	</g>
</g>
<g>
	<g>
		<path d="M95.117,352.204H51.635c-4.504,0-8.153,3.65-8.153,8.153s3.649,8.153,8.153,8.153h43.482c4.504,0,8.153-3.65,8.153-8.153
			S99.62,352.204,95.117,352.204z"/>
	</g>
</g>
</svg>