<?xml version="1.0" encoding="iso-8859-1"?>
<!-- Uploaded to: SVG Repo, www.svgrepo.com, Generator: SVG Repo Mixer Tools -->
<svg fill="#000000" height="800px" width="800px" version="1.1" id="Layer_1" xmlns="http://www.w3.org/2000/svg" xmlns:xlink="http://www.w3.org/1999/xlink" 
	 viewBox="0 0 512.001 512.001" xml:space="preserve">
<g>
	<g>
		<path d="M496.771,361.365h-135.81l12.425-43.694h34.606c50.302,0,91.224-40.923,91.224-91.225
			c0-44.552-32.105-81.741-74.393-89.662l3.849-13.533c0.386-1.354,0.581-2.756,0.581-4.165V61.185
			c0-8.41-6.818-15.229-15.229-15.229H88.326c-8.41,0-15.228,6.818-15.228,15.229v56.696c0,1.402,0.193,2.798,0.575,4.147
			l67.737,239.338H59.28c-0.021,0-0.043,0-0.064,0H15.229C6.818,361.365,0,368.184,0,376.594c0,8.41,6.818,15.228,15.229,15.228
			h34.732l13.224,24.923c16.136,30.409,47.544,49.3,81.969,49.3h221.693c34.424,0,65.834-18.89,81.969-49.3l13.224-24.923h34.732
			c8.41,0,15.228-6.818,15.228-15.228C512.001,368.184,505.183,361.365,496.771,361.365z M416.438,166.279
			c29.522,4.124,52.322,29.526,52.322,60.168c0,33.508-27.26,60.768-60.767,60.768h-25.945L416.438,166.279z M103.555,115.766
			V76.413h295.242v40.55l-69.499,244.401H173.063L103.555,115.766z M421.912,402.47c-10.841,20.429-31.94,33.119-55.065,33.119
			H145.154c-23.125,0-44.226-12.69-55.065-33.119l-5.65-10.648h343.123L421.912,402.47z"/>
	</g>
</g>
</svg>