<?xml version="1.0" encoding="iso-8859-1"?>
<!-- Uploaded to: SVG Repo, www.svgrepo.com, Generator: SVG Repo Mixer Tools -->
<!DOCTYPE svg PUBLIC "-//W3C//DTD SVG 1.1//EN" "http://www.w3.org/Graphics/SVG/1.1/DTD/svg11.dtd">
<svg fill="#000000" version="1.1" id="Capa_1" xmlns="http://www.w3.org/2000/svg" xmlns:xlink="http://www.w3.org/1999/xlink" 
	 width="800px" height="800px" viewBox="0 0 394.431 394.431"
	 xml:space="preserve">
<g>
	<path d="M270.004,346.66c-3.591,4.357-15.34,19.261-15.34,28.283c0,10.746,8.741,19.487,19.487,19.487s19.485-8.741,19.485-19.487
		c0-9.022-11.749-23.926-15.338-28.283C276.245,344.183,272.051,344.183,270.004,346.66z M274.151,383.679
		c-4.819,0-8.735-3.916-8.735-8.735c0-2.714,4.025-9.606,8.735-16.083c4.708,6.467,8.734,13.358,8.734,16.083
		C282.886,379.763,278.969,383.679,274.151,383.679z"/>
	<path d="M61.822,29.564h6.72v212.328c0,19.711,11.073,37.481,28.493,46.226v46.5c0,2.971,2.41,5.375,5.375,5.375h35.736
		c2.968,0,5.375-2.404,5.375-5.375v-46.5c17.423-8.744,28.497-26.515,28.497-46.226V29.564h6.719c2.966,0,5.375-2.402,5.375-5.375
		V5.375c0-2.971-2.409-5.375-5.375-5.375H61.822c-2.968,0-5.375,2.404-5.375,5.375v18.813
		C56.447,27.163,58.849,29.564,61.822,29.564z M67.198,10.751h106.165v8.062h-6.719H73.917h-6.72V10.751z"/>
	<path d="M297.395,334.618v-46.5c17.417-8.744,28.495-26.515,28.495-46.226V29.564h6.719c2.966,0,5.375-2.402,5.375-5.375V5.375
		c0-2.971-2.409-5.375-5.375-5.375H215.692c-2.971,0-5.375,2.404-5.375,5.375v18.813c0,2.974,2.404,5.375,5.375,5.375h6.721v212.328
		c0,19.711,11.076,37.481,28.493,46.226v46.5c0,2.971,2.41,5.375,5.376,5.375h35.738
		C294.986,339.993,297.395,337.589,297.395,334.618z M221.068,10.751h106.164v8.062h-6.719h-92.726h-6.72V10.751z"/>
</g>
</svg>