<?xml version="1.0" encoding="iso-8859-1"?>
<!-- Uploaded to: SVG Repo, www.svgrepo.com, Generator: SVG Repo Mixer Tools -->
<!DOCTYPE svg PUBLIC "-//W3C//DTD SVG 1.1//EN" "http://www.w3.org/Graphics/SVG/1.1/DTD/svg11.dtd">
<svg fill="#000000" version="1.1" id="Capa_1" xmlns="http://www.w3.org/2000/svg" xmlns:xlink="http://www.w3.org/1999/xlink" 
	 width="800px" height="800px" viewBox="0 0 35 35" xml:space="preserve">
<g>
	<g>
		<path d="M0,0v35h35V0H0z M33,33H2V2h31V33z"/>
		<rect x="10" y="5" width="20" height="2.824"/>
		<rect x="10" y="9.438" width="20" height="2.819"/>
		<rect x="10" y="13.869" width="20" height="2.824"/>
		<rect x="10" y="18.307" width="20" height="2.818"/>
		<rect x="10" y="22.739" width="20" height="2.829"/>
		<rect x="10" y="27.18" width="20" height="2.82"/>
		<rect x="5" y="5" width="2.824" height="2.824"/>
		<rect x="5" y="9.436" width="2.824" height="2.823"/>
		<rect x="5" y="13.87" width="2.824" height="2.823"/>
		<rect x="5" y="18.305" width="2.824" height="2.824"/>
		<rect x="5" y="22.74" width="2.824" height="2.824"/>
		<rect x="5" y="27.176" width="2.824" height="2.824"/>
	</g>
</g>
</svg>