<?xml version="1.0" encoding="iso-8859-1"?>
<!-- Uploaded to: SVG Repo, www.svgrepo.com, Generator: SVG Repo Mixer Tools -->
<svg fill="#000000" height="800px" width="800px" version="1.1" id="Layer_1" xmlns="http://www.w3.org/2000/svg" xmlns:xlink="http://www.w3.org/1999/xlink" 
	 viewBox="0 0 505.729 505.729" xml:space="preserve">
<g>
	<g>
		<g>
			<path d="M289.655,206.747c11.622-11.622,11.657-30.507,0.068-42.095l-64.265-64.265c22.383,2.543,46.524-9.617,55.236-28.885
				c1.118-2.466,1.954-5.18,2.628-8.525c2.244-11.068-3.61-16.597-5.555-18.449c-0.265-0.333-0.521-0.64-0.794-0.913
				c-2.227-2.227-5.231-2.441-14.865-3.14c-14.199-1.016-43.733-3.149-67.584-9.958c-1.22-0.299-18.697-4.42-37.828-6.596
				c-4.821,2.022-9.481,4.019-13.44,5.709c-13.193,5.641-24.593,10.513-30.464,12.203c-4.523,1.289-9.259-1.306-10.564-5.845
				c-1.297-4.531,1.314-9.259,5.845-10.556c4.642-1.34,15.36-5.888,26.914-10.829l-0.768-0.768c0,0-0.009-0.008-0.017-0.008
				C123.605,3.227,108.594-1.466,91.929,0.616C77.03,2.476,62.386,9.644,51.737,20.294L14.079,57.951
				C-2.749,74.788-4.651,99.824,9.232,121.746c4.497,7.091,5.069,10.701,5.137,11.639c0.017,0.35,0.085,0.785,0.12,1.152
				c4.591-13.278,8.602-23.654,10.334-26.607c2.389-4.062,7.612-5.419,11.682-3.029c0.64,0.375,1.212,0.828,1.715,1.323
				c2.679,2.688,3.328,6.938,1.314,10.359c-2.816,4.787-9.626,24.465-15.957,44.928c2.441,3.959,5.478,7.97,9.353,11.844
				c56.542,56.542,84.753,82.697,107.861,59.58c2.202-2.202,4.045-4.838,5.376-7.74c11.716,7.501,26.999,6.17,37.214-4.045
				c3.354-3.354,5.53-7.245,6.758-11.315c11.827,10.709,30.643,10.556,41.805-0.606c3.174-3.174,5.444-6.989,6.801-11.076
				l8.602,8.593C259.011,218.412,277.99,218.412,289.655,206.747z"/>
			<path d="M492.041,371.388l-0.008-0.008l-0.777-0.777c-4.932,11.554-9.489,22.272-10.82,26.914
				c-1.306,4.531-6.033,7.142-10.564,5.845c-4.531-1.306-7.134-6.042-5.837-10.556c1.69-5.879,6.562-17.28,12.203-30.472
				c1.69-3.959,3.678-8.619,5.7-13.44c-2.167-19.132-6.289-36.599-6.588-37.828c-6.81-23.851-8.943-53.385-9.967-67.575
				c-0.691-9.643-0.904-12.638-3.14-14.874c-0.265-0.265-0.572-0.521-0.904-0.785c-1.852-1.946-7.381-7.808-18.449-5.555
				c-3.354,0.666-6.059,1.502-8.525,2.62c-19.277,8.721-31.428,32.862-28.885,55.236l-64.265-64.265
				c-11.588-11.588-30.473-11.554-42.095,0.068c-11.674,11.674-11.665,30.652,0,42.308l8.593,8.602
				c-4.096,1.365-7.902,3.635-11.076,6.81c-11.162,11.162-11.315,29.969-0.606,41.796c-4.07,1.229-7.97,3.405-11.324,6.758
				c-10.206,10.214-11.546,25.498-4.045,37.222c-2.893,1.331-5.538,3.166-7.74,5.367c-23.108,23.117,3.046,51.319,59.588,107.861
				c3.874,3.874,7.876,6.912,11.836,9.361c20.471-6.34,40.149-13.15,44.928-15.966c3.43-2.014,7.68-1.365,10.359,1.323
				c0.503,0.495,0.956,1.067,1.323,1.715c2.389,4.062,1.033,9.293-3.029,11.674c-2.944,1.732-13.32,5.743-26.607,10.342
				c0.375,0.034,0.811,0.094,1.161,0.12c0.939,0.068,4.548,0.631,11.64,5.137c21.922,13.875,46.959,11.981,63.787-4.847
				l37.658-37.666c10.65-10.641,17.818-25.293,19.678-40.183C507.333,396.997,502.64,381.987,492.041,371.388z"/>
		</g>
	</g>
</g>
</svg>