<?xml version="1.0" encoding="iso-8859-1"?>
<!-- Uploaded to: SVG Repo, www.svgrepo.com, Generator: SVG Repo Mixer Tools -->
<svg fill="#000000" version="1.1" id="Capa_1" xmlns="http://www.w3.org/2000/svg" xmlns:xlink="http://www.w3.org/1999/xlink" 
	 viewBox="0 0 611.999 611.999" xml:space="preserve">
<g>
	<g>
		<path d="M476.071,383.906l17.913-17.913l-60.224-60.224l-17.92,17.92c0,0-49.584-50.757-51.205-52.173
			c15.07-15.565,24.455-36.693,24.775-59.991c11.623-2.495,20.374-12.855,20.374-25.203c0-12.357-8.751-22.721-20.374-25.217
			c-0.281-16.179-4.723-31.518-12.969-44.849c23.836-8.863,35.916-23.581,35.916-43.834c0-19.807-11.779-38.252-33.167-51.938
			C358.546,7.274,331.208,0,302.211,0c-29.001,0-56.341,7.274-76.982,20.482c-21.385,13.686-33.162,32.13-33.162,51.938
			c0,20.151,11.964,34.826,35.539,43.695c-8.386,13.432-12.895,28.861-13.16,45.101c-11.452,2.671-19.821,12.849-19.821,25.104
			c0,12.246,8.367,22.419,19.819,25.089c0.296,23.829,10.064,45.408,25.712,61.083c-0.75,0.677-112.212,112.424-112.212,112.424
			c-6.403,6.395-9.931,14.901-9.931,23.953c0,9.05,3.526,17.56,9.928,23.962c6.605,6.605,15.035,9.906,23.71,9.906
			c6.294,0,12.456-1.748,17.842-5.224v74.856h64.624v99.629h134.634V471.98h28.273v-30.515l10.742,10.496l20.268-20.145l1.058,0.996
			c6.395,6.405,14.934,9.932,23.984,9.932c9.049,0,17.574-3.526,23.976-9.929c13.202-13.201,13.212-34.694,0.008-47.911
			L476.071,383.906z M388.948,172.332c6.732,2.188,9.572,7.63,9.572,13.988c0,6.352-2.841,11.789-9.572,13.975V172.332z
			 M213.925,200.094c-5.385-2.298-9.02-7.577-9.02-13.774c0-6.201,3.635-11.486,9.02-13.786V200.094z M443.408,330.649
			l32.006,32.006l-33.237,6.542L443.408,330.649z M432.913,321.85l-2.135,66.908l-66.908,2.135L432.913,321.85z M408.224,331.305
			l-10.716,10.715c-0.047-8.551-1.276-16.96-3.639-25.07L408.224,331.305z M202.715,72.421c0-33.994,44.64-61.65,99.435-61.65
			s99.43,27.656,99.43,61.65c0,16.136-11.285,27.494-31.48,34.668V75.206l-3.949-1.107c-20.843-5.879-42.404-8.86-64.06-8.86
			c-21.563,0-43.153,2.955-63.913,8.786l-4.058,1.103v31.954C212.578,99.914,202.715,88.559,202.715,72.421z M244.89,112.509v-29.18
			c36.351-9.739,76.741-9.718,114.439,0.069v29.112H244.89z M333.905,123.28c-9.497,6.732-20.44,11.282-31.698,11.282
			c-11.258,0-22.2-4.551-31.698-11.282H333.905z M224.695,210.299v-47.566c0-14.243,4.21-27.336,11.281-39.453h18.697
			c13.115,13.463,29.934,22.053,47.534,22.053c17.599,0,34.418-8.59,47.534-22.053h18.24c7.006,10.771,10.197,25.172,10.197,39.453
			v47.566c0,42.523-34.426,77.117-76.741,77.117S224.695,252.822,224.695,210.299z M263.545,289.388l32.506,47.089v54.287
			l-48.172-110.969c0.051-0.044,0.1-0.094,0.151-0.139C252.833,283.412,258.021,286.69,263.545,289.388z M219.31,342.523
			c0-19.183,6.542-37.197,18.476-52.121c0.626-0.794,1.4-1.682,2.065-2.46l46.396,105.951h-66.938v-51.371H219.31z M212.924,314.913
			c-2.72,8.895-4.385,18.208-4.385,27.608v41.902l-20.094,20.34l-33.323-32.04L212.924,314.913z M168.24,425.217
			c-9.01,9.007-23.67,9.01-32.678,0c-4.369-4.369-6.773-10.174-6.773-16.347c0-6.17,2.405-11.972,6.773-16.335l12.191-12.192
			l33.322,32.04L168.24,425.217z M246.331,601.229c2.258-12.117,12.576-20.6,24.942-20.6s22.684,8.483,24.942,20.6H246.331z
			 M296.051,580.385c-5.385-6.379-15.445-10.321-25.271-10.321c-10.141,0-19.158,4.199-25.89,10.942V512.37h51.161V580.385z
			 M301.437,501.6h-121.17v-51.714l58.883,27.216l62.287-26.438L301.437,501.6L301.437,501.6z M301.437,438.965l-62.101,26.357
			l-59.069-27.301v-10.092l23.55-23.265h97.62L301.437,438.965L301.437,438.965z M281.487,295.74
			c6.563,1.583,13.403,2.446,20.443,2.446c7.273,0,14.336-0.91,21.096-2.598l-20.809,29.862L281.487,295.74z M307.659,601.229
			c2.258-12.117,12.576-20.6,24.942-20.6c12.367,0,22.686,8.483,24.944,20.6H307.659z M357.983,580.989
			c-6.732-6.732-15.741-10.923-25.873-10.923c-9.834,0-18.557,3.949-25.288,10.337v-68.032h5.385v-40.39h45.775V580.989z
			 M386.256,461.21h-74.048v-67.317h-5.385v-57.262l33.521-47.514c5.725-2.843,11.216-6.299,16.152-10.281
			c1.765,1.497,10.567,10.74,12.992,13.963c11.091,14.69,16.769,31.884,16.769,49.722v10.259l-38.958,38.958l38.958,38.958
			L386.256,461.21L386.256,461.21z M404.675,433.391l-32.004-32.002l38.544-1.231L404.675,433.391z M422.264,399.804l18.956-0.606
			l0.605-18.952l28.233-5.558l-53.351,53.351L422.264,399.804z M469.455,425.203c-4.367,4.367-10.172,6.773-16.345,6.773
			c-6.172,0-11.972-2.405-16.335-6.775l-0.999-0.999l32.68-32.68l0.998,0.998C478.46,401.537,478.46,416.197,469.455,425.203z"/>
		<rect x="327.017" y="338.694" width="40.39" height="10.771"/>
		<circle cx="266.852" cy="196.515" r="12.665"/>
		<circle cx="337.561" cy="196.515" r="12.665"/>
		<circle cx="240.093" cy="445.757" r="7.915"/>
		<path d="M302.207,57.11c9.08,0,16.466-7.386,16.466-16.466s-7.386-16.466-16.466-16.466s-16.466,7.386-16.466,16.466
			S293.127,57.11,302.207,57.11z M302.207,34.948c3.141,0,5.695,2.554,5.695,5.695s-2.555,5.695-5.695,5.695
			s-5.695-2.554-5.695-5.695S299.066,34.948,302.207,34.948z"/>
	</g>
</g>
</svg>