<?xml version="1.0" encoding="iso-8859-1"?>
<!-- Uploaded to: SVG Repo, www.svgrepo.com, Generator: SVG Repo Mixer Tools -->
<svg fill="#000000" height="800px" width="800px" version="1.1" id="Layer_1" xmlns="http://www.w3.org/2000/svg" xmlns:xlink="http://www.w3.org/1999/xlink" 
	 viewBox="0 0 512 512" xml:space="preserve">
<g>
	<g>
		<path d="M298.682,421.601h-0.158c-5.77,0-10.448,4.678-10.448,10.448s4.678,10.448,10.448,10.448h0.158
			c5.77,0,10.448-4.678,10.448-10.448S304.453,421.601,298.682,421.601z"/>
	</g>
</g>
<g>
	<g>
		<path d="M363.925,421.6h-30.489c-5.77,0-10.448,4.677-10.448,10.448c0,5.77,4.677,10.448,10.448,10.448h30.489
			c5.77,0,10.448-4.678,10.448-10.448C374.372,426.278,369.695,421.6,363.925,421.6z"/>
	</g>
</g>
<g>
	<g>
		<path d="M10.585,479.064h-0.137C4.678,479.064,0,483.741,0,489.512s4.678,10.448,10.448,10.448h0.137
			c5.77,0,10.448-4.678,10.448-10.448S16.355,479.064,10.585,479.064z"/>
	</g>
</g>
<g>
	<g>
		<path d="M501.501,479.064h-0.137c-5.77,0-10.448,4.678-10.448,10.448s4.677,10.448,10.448,10.448h0.137
			c5.77,0,10.448-4.678,10.448-10.448S507.271,479.064,501.501,479.064z"/>
	</g>
</g>
<g>
	<g>
		<path d="M294.077,200.104c-6.44,0-11.679,5.239-11.679,11.679c0,6.439,5.239,11.678,11.679,11.678s11.679-5.239,11.679-11.678
			C305.756,205.343,300.517,200.104,294.077,200.104z"/>
	</g>
</g>
<g>
	<g>
		<path d="M217.872,200.104c-6.44,0-11.679,5.239-11.679,11.679c0,6.439,5.239,11.678,11.679,11.678
			c6.439,0,11.678-5.239,11.679-11.678C229.551,205.343,224.312,200.104,217.872,200.104z"/>
	</g>
</g>
<g>
	<g>
		<path d="M283.921,233.67h-27.777c-0.009,0-0.019,0.001-0.029,0.001s-0.019-0.001-0.029-0.001h-27.777
			c-12.885,0-23.37,10.483-23.37,23.37v3.836c0,5.77,4.677,10.448,10.448,10.448h27.777c4.787,0,9.241-1.449,12.951-3.928
			c3.71,2.479,8.164,3.928,12.951,3.928h27.777c5.77,0,10.448-4.678,10.448-10.448v-3.836
			C307.289,244.155,296.806,233.67,283.921,233.67z"/>
	</g>
</g>
<g>
	<g>
		<path d="M470.901,332.793h-75.085c-5.77,0-10.448,4.677-10.448,10.448c0,5.77,4.677,10.448,10.448,10.448h75.085
			c5.77,0,10.448-4.678,10.448-10.448C481.349,337.47,476.671,332.793,470.901,332.793z"/>
	</g>
</g>
<g>
	<g>
		<path d="M470.901,368.316h-39.002c-5.77,0-10.448,4.678-10.448,10.448s4.677,10.448,10.448,10.448h39.002
			c5.77,0,10.448-4.678,10.448-10.448S476.671,368.316,470.901,368.316z"/>
	</g>
</g>
<g>
	<g>
		<path d="M470.901,403.861h-39.002c-5.77,0-10.448,4.677-10.448,10.448c0,5.77,4.677,10.448,10.448,10.448h39.002
			c5.77,0,10.448-4.677,10.448-10.448C481.349,408.538,476.671,403.861,470.901,403.861z"/>
	</g>
</g>
<g>
	<g>
		<path d="M501.552,279.582h-20.201v-10.296c0-5.77-4.678-10.448-10.448-10.448h-75.086c-5.77,0-10.448,4.678-10.448,10.448v10.296
			H367.82c-5.77,0-10.448,4.678-10.448,10.448v62.041l-44.902-18.708c-2.081-0.867-3.52-2.737-3.857-4.916
			c-0.005-0.05-0.01-0.1-0.016-0.151c-0.037-0.276-0.063-0.554-0.063-0.838v-16.27l27.31-15.659c0.19-0.109,0.377-0.225,0.561-0.346
			c13.674-9.03,22.654-25.091,24.02-42.961c0.021-0.264,0.03-0.531,0.03-0.796v-8.674c13.568-4.413,23.402-17.181,23.402-32.202
			s-9.835-27.788-23.402-32.202c0,0,0.065-22.611,0-23.084c43.343-14.728,67.963-37.815,67.963-63.822
			c0-22.872-19.087-43.601-53.745-58.372c-31.828-13.563-73.916-21.033-118.513-21.033c-44.597,0-86.685,7.469-118.513,21.033
			C102.986,47.844,83.9,68.575,83.9,91.446c0,25.963,24.457,48.965,67.595,63.7c-0.076,0.511,0,23.205,0,23.205
			c-13.568,4.413-23.402,17.181-23.402,32.202s9.835,27.788,23.402,32.202v8.674c0,0.265,0.01,0.532,0.03,0.796
			c1.372,17.943,10.288,34.003,23.852,42.961c0.187,0.123,0.378,0.24,0.573,0.352l27.467,15.702v16.219
			c0,2.59-1.545,4.907-3.936,5.904l-32.744,13.643l-34.498,14.374c-15.379,6.409-26.705,21.992-29.315,39.413H10.448
			C4.678,400.792,0,405.47,0,411.24v43.272c0,5.77,4.678,10.448,10.448,10.448s10.448-4.677,10.448-10.448v-25.264l52.827,30.199
			c1.607,0.918,3.396,1.377,5.185,1.377s3.578-0.459,5.185-1.377l52.827-30.199v49.817H44.386c-5.77,0-10.448,4.678-10.448,10.448
			s4.678,10.448,10.448,10.448h423.177c5.77,0,10.448-4.678,10.448-10.448s-4.678-10.448-10.448-10.448h-57.964v-11.42h91.953
			c5.77,0,10.448-4.677,10.448-10.448V290.03C512,284.259,507.322,279.582,501.552,279.582z M78.907,438.341l-29.131-16.653h58.263
			L78.907,438.341z M406.264,279.733h54.19v19.975h-54.19V279.733z M104.796,91.446c0-27.673,62.162-58.508,151.362-58.508
			s151.362,30.835,151.362,58.508c0,14.915-17.776,30.376-47.146,41.602V91.446c0-5.77-4.678-10.448-10.448-10.448H162.389
			c-5.77,0-10.448,4.678-10.448,10.448v41.604C122.553,121.825,104.796,106.389,104.796,91.446z M172.837,142.386v-40.492h166.641
			v40.492H172.837z M312.228,163.281c-11.196,5.854-30.668,11.157-56.268,11.157s-45.072-5.303-56.267-11.157H312.228z
			 M186.636,277.577c-7.984-5.406-13.284-15.292-14.245-26.569v-17.052c0-5.77-4.678-10.448-10.448-10.448
			c-7.143,0-12.954-5.812-12.954-12.954s5.812-12.954,12.954-12.954c5.77,0,10.448-4.678,10.448-10.448v-20.3
			c3.968,6.121,11.347,12.742,24.792,18.304c15.87,6.565,36.744,10.182,58.777,10.182s42.908-3.616,58.778-10.182
			c13.475-5.575,20.859-12.214,24.82-18.348v20.344c0,5.77,4.678,10.448,10.448,10.448c7.143,0,12.954,5.812,12.954,12.954
			s-5.812,12.954-12.954,12.954c-5.77,0-10.448,4.677-10.448,10.448v17.05c-0.949,11.049-6.442,21.174-14.419,26.574l-56.094,32.164
			c-0.191,0.11-0.377,0.225-0.561,0.346c-7.831,5.174-17.184,5.174-25.018,0c-0.187-0.124-0.377-0.241-0.573-0.352L186.636,277.577z
			 M287.766,323.17v19.091c0,17.538-14.269,31.806-31.807,31.806s-31.806-14.268-31.806-31.806v-19.078l8.097,4.539
			c7.333,4.763,15.529,7.144,23.725,7.144c8.198,0,16.396-2.383,23.73-7.148L287.766,323.17z M157.815,479.063v-67.824
			c0-5.77-4.678-10.448-10.448-10.448h-23.112c2.262-8.774,8.171-16.6,15.54-19.897l98.17,98.169H157.815z M267.517,479.065v-0.001
			l-106.88-106.879l7.678-3.199l110.079,110.079H267.517z M307.947,479.064L189.174,360.293l15.39-6.412
			c5.308,23.486,26.329,41.083,51.396,41.083c25.071,0,46.094-17.603,51.398-41.094l64.315,26.797
			c9.708,4.045,17.029,15.976,17.029,27.753v70.644H307.947z M409.599,446.749V408.42c0-20.365-12.291-39.709-29.888-47.042
			l-1.444-0.602v-60.299h7.101v9.679c0,5.77,4.678,10.448,10.448,10.448h75.086c5.77,0,10.448-4.678,10.448-10.448v-9.679h9.753
			v146.271H409.599z"/>
	</g>
</g>
<g>
	<g>
		<path d="M268.214,111.692h-24.115c-5.77,0-10.448,4.678-10.448,10.448c0,5.77,4.678,10.448,10.448,10.448h24.115
			c5.77,0,10.448-4.677,10.448-10.448C278.662,116.369,273.985,111.692,268.214,111.692z"/>
	</g>
</g>
</svg>