<?xml version='1.0' encoding='iso-8859-1'?>
<!DOCTYPE svg PUBLIC '-//W3C//DTD SVG 1.1//EN' 'http://www.w3.org/Graphics/SVG/1.1/DTD/svg11.dtd'>
<!-- Uploaded to: SVG Repo, www.svgrepo.com, Generator: SVG Repo Mixer Tools -->
<svg fill="#000000" height="800px" width="800px" version="1.1" xmlns="http://www.w3.org/2000/svg" viewBox="0 0 451.479 451.479" xmlns:xlink="http://www.w3.org/1999/xlink" enable-background="new 0 0 451.479 451.479">
  <g>
    <path d="m443.979,214.977h-343.021l305.929-49.419c4.089-0.66 6.868-4.511 6.208-8.6-0.661-4.088-4.499-6.869-8.601-6.208l-398.19,64.323c-0.023,0.004-0.578,0.119-0.826,0.188-3.159,0.883-5.478,3.776-5.478,7.216v39.324c0,12.788 8.65,23.587 20.404,26.872v4.653c0,4.142 3.357,7.5 7.5,7.5s7.5-3.358 7.5-7.5v-3.621h380.67v3.621c0,4.142 3.357,7.5 7.5,7.5s7.5-3.358 7.5-7.5v-4.653c11.754-3.285 20.404-14.084 20.404-26.872v-39.324c0.001-4.142-3.357-7.5-7.499-7.5zm-7.5,21.951h-421.479v-6.952h421.479v6.952zm-421.479,24.873v-14.873h38.497v27.777h-25.593c-7.115,0-12.904-5.789-12.904-12.904zm408.574,12.904h-360.077v-27.777h372.981v14.873c0.001,7.115-5.789,12.904-12.904,12.904z"/>
    <path d="m413.982,255.169c-1.32,0-2.61,0.53-3.54,1.46-0.931,0.93-1.46,2.22-1.46,3.54s0.529,2.6 1.46,3.53c0.93,0.93 2.22,1.47 3.54,1.47 1.31,0 2.6-0.54 3.529-1.47 0.931-0.93 1.471-2.22 1.471-3.53 0-1.32-0.54-2.61-1.471-3.54-0.929-0.93-2.219-1.46-3.529-1.46z"/>
    <path d="m389.982,255.169c-1.32,0-2.61,0.53-3.54,1.46-0.931,0.93-1.46,2.22-1.46,3.54 0,1.31 0.529,2.6 1.46,3.53 0.93,0.93 2.22,1.47 3.54,1.47 1.31,0 2.6-0.54 3.529-1.47 0.931-0.93 1.471-2.21 1.471-3.53s-0.54-2.61-1.471-3.54c-0.929-0.93-2.219-1.46-3.529-1.46z"/>
  </g>
</svg>